<?xml version="1.0" standalone="no"?>
<!DOCTYPE svg PUBLIC "-//W3C//DTD SVG 20010904//EN"
 "http://www.w3.org/TR/2001/REC-SVG-20010904/DTD/svg10.dtd">
<svg version="1.0" xmlns="http://www.w3.org/2000/svg"
 width="600.000000pt" height="600.000000pt" viewBox="0 0 600.000000 600.000000"
 preserveAspectRatio="xMidYMid meet">

<g transform="translate(0.000000,600.000000) scale(0.100000,-0.100000)"
fill="#cf0000" stroke="none">
<path d="M1195 5989 c-581 -76 -1039 -498 -1167 -1079 l-23 -105 0 -1805 0
-1805 23 -105 c120 -543 519 -942 1062 -1062 l105 -23 1800 0 c1699 0 1805 1
1890 18 282 57 509 178 711 381 203 202 324 429 381 711 17 85 18 191 18 1890
l0 1800 -23 105 c-120 541 -514 937 -1057 1061 l-100 23 -1775 2 c-1016 1
-1805 -2 -1845 -7z m3373 -1335 c194 -41 391 -192 486 -374 64 -122 81 -197
80 -355 0 -123 -3 -150 -26 -217 -41 -125 -91 -203 -193 -304 -78 -78 -106
-99 -186 -137 -134 -65 -210 -80 -361 -75 -99 4 -138 10 -203 32 -244 83 -423
274 -491 527 -26 96 -24 271 4 372 84 296 332 512 629 547 81 9 162 4 261 -16z
m-2692 -894 c196 -25 331 -84 438 -193 123 -124 177 -262 177 -455 1 -189 -69
-339 -203 -438 l-59 -43 43 -11 c217 -55 374 -213 424 -427 18 -78 21 -255 5
-325 -46 -200 -161 -349 -341 -442 -178 -93 -314 -108 -900 -104 l-395 3 -3
1210 c-1 666 0 1216 3 1223 6 15 688 17 811 2z m1406 -1332 l3 -481 360 481
360 481 228 1 227 0 0 -790 0 -790 -225 0 -225 0 -2 482 -3 481 -360 -481
-360 -481 -227 -1 -228 0 0 790 0 790 225 0 225 0 2 -482z"/>
<path d="M4200 4184 c-19 -8 -42 -22 -52 -31 -17 -15 -18 -15 -18 5 0 20 -5
22 -60 22 l-60 0 0 -330 0 -330 60 0 60 0 0 141 0 141 31 -26 c38 -33 66 -40
134 -34 139 12 219 157 173 311 -33 111 -166 175 -268 131z m99 -109 c58 -30
76 -121 36 -182 -39 -59 -136 -66 -185 -13 -50 54 -45 137 11 184 35 30 93 35
138 11z"/>
<path d="M4480 4173 c0 -5 45 -87 100 -183 l99 -175 -28 -50 c-15 -27 -52 -94
-80 -147 l-53 -98 69 0 68 0 87 168 c48 92 126 240 173 330 l86 162 -69 0 -69
0 -54 -116 c-29 -63 -56 -117 -60 -119 -3 -3 -35 49 -70 115 l-64 120 -67 0
c-38 0 -68 -3 -68 -7z"/>
<path d="M3790 3870 c-12 -12 -20 -33 -20 -55 0 -72 86 -104 129 -49 28 35 26
69 -4 99 -30 31 -77 33 -105 5z"/>
<path d="M1540 3070 l0 -312 138 4 c125 3 142 6 197 31 33 16 71 38 83 50 95
89 117 288 43 397 -62 93 -154 131 -333 138 l-128 5 0 -313z"/>
<path d="M1547 2383 c-4 -3 -7 -154 -7 -335 l0 -328 171 0 c197 0 279 14 360
63 104 63 155 168 147 303 -11 168 -125 267 -340 294 -92 11 -321 14 -331 3z"/>
</g>
</svg>
